# xmcd
#
# Track frame offsets:
#	150
#	14418
#	40707
#	57118
#	74427
#	90403
#	104630
#	120987
#	137812
#	152255
#	168185
#	183857
#	200972
#	218978
#	237250
#	252170
#	269879
#
# Disc length: 3835 seconds
#
# Revision: 0
# Processed by: cddbd v1.4PL0 Copyright (c) Steve Scherf et al.
# Submitted via: audiograbber 1.82.01
#
DISCID=ef0ef911
DTITLE=Various Artist - Saloon Tunes 61
DYEAR=2003
DGENRE=Country
TTITLE0=Krauss, Alison and Union Station - Lucky One
TTITLE1=Strait, Bering - Bearing Strait
TTITLE2=Brock, Chad - That Was Us
TTITLE3=Strait, George - Road Less Traveled
TTITLE4=Strait, George - The Real Thing
TTITLE5=Ketchum, Hal - (She's Something) You're Everything
TTITLE6=Ingram, Jack - A Little Bit
TTITLE7=Coffey, Kellie - Whatever It Takes
TTITLE8=Mellons, Ken - Mr DJ
TTITLE9=Lonestar - My Front Porch Looking In
TTITLE10=Chesnutt, Mark - I'm In Love With A Married Man
TTITLE11=Hamm, Regie - Babies
TTITLE12=Redman, Rodney - These Days
TTITLE13=Evans, Sara - Back Seat Of A Greyhound Bus
TTITLE14=Tucker, Tanya - Old Weakness (Coming On Strong)
TTITLE15=Clark, Terri - Three Mississippi
TTITLE16=Nelson, Willie and Jon Bon Jovi - Always On My Mind
EXTD=
EXTT0=
EXTT1=
EXTT2=
EXTT3=
EXTT4=
EXTT5=
EXTT6=
EXTT7=
EXTT8=
EXTT9=
EXTT10=
EXTT11=
EXTT12=
EXTT13=
EXTT14=
EXTT15=
EXTT16=
PLAYORDER=
